<?xml version="1.0" encoding="utf-8"?>
<!-- Generator: Adobe Illustrator 24.1.0, SVG Export Plug-In . SVG Version: 6.00 Build 0)  -->
<svg version="1.1"
	 id="svg3409" xmlns:cc="http://creativecommons.org/ns#" xmlns:dc="http://purl.org/dc/elements/1.1/" xmlns:inkscape="http://www.inkscape.org/namespaces/inkscape" xmlns:rdf="http://www.w3.org/1999/02/22-rdf-syntax-ns#" xmlns:sodipodi="http://sodipodi.sourceforge.net/DTD/sodipodi-0.dtd" xmlns:svg="http://www.w3.org/2000/svg"
	 xmlns="http://www.w3.org/2000/svg" xmlns:xlink="http://www.w3.org/1999/xlink" x="0px" y="0px" viewBox="0 0 100 77.6"
	 style="enable-background:new 0 0 100 77.6;" xml:space="preserve">
<style type="text/css">
	.st0{fill:#FF5F00;}
	.st1{fill:#EB001B;}
	.st2{fill:#F79E1B;}
</style>
<sodipodi:namedview  bordercolor="#666666" borderopacity="1" gridtolerance="10" guidetolerance="10" id="namedview4178" inkscape:current-layer="svg3409" inkscape:cx="400.80964" inkscape:cy="270.06961" inkscape:pageopacity="0" inkscape:pageshadow="2" inkscape:window-height="705" inkscape:window-maximized="1" inkscape:window-width="1366" inkscape:window-x="-8" inkscape:window-y="-8" inkscape:zoom="0.35355339" objecttolerance="10" pagecolor="#ffffff" showgrid="false">
	</sodipodi:namedview>
<g id="layer1" transform="matrix(3.3557321,0,0,3.3557321,-1551.7864,-1849.1059)">
	<g id="g13" transform="matrix(2.5579399,0,0,2.5579399,884.90115,-11.427398)">
		<g id="g15" transform="translate(-502.86126,-41.013507)">
			<path id="XMLID_1775_" inkscape:connector-curvature="0" d="M340.2,269.5v-0.5c0-0.2-0.1-0.3-0.3-0.3c-0.1,0-0.2,0-0.3,0.2
				c-0.1-0.1-0.2-0.2-0.3-0.2c-0.1,0-0.2,0-0.3,0.1v-0.1h-0.2v0.9h0.2V269c0-0.2,0.1-0.2,0.2-0.2s0.2,0.1,0.2,0.2v0.5h0.2V269
				c0-0.2,0.1-0.2,0.2-0.2c0.1,0,0.2,0.1,0.2,0.2v0.5H340.2z M343,268.6h-0.3v-0.3h-0.2v0.3h-0.2v0.2h0.2v0.4c0,0.2,0.1,0.3,0.3,0.3
				c0.1,0,0.2,0,0.2-0.1l-0.1-0.2c-0.1,0-0.1,0-0.2,0c-0.1,0-0.1-0.1-0.1-0.1v-0.4h0.3V268.6z M344.6,268.6c-0.1,0-0.2,0.1-0.2,0.1
				v-0.1h-0.2v0.9h0.2V269c0-0.1,0.1-0.2,0.2-0.2c0,0,0.1,0,0.1,0l0.1-0.2C344.7,268.6,344.6,268.6,344.6,268.6L344.6,268.6z
				 M342.2,268.7c-0.1-0.1-0.2-0.1-0.4-0.1c-0.2,0-0.4,0.1-0.4,0.3c0,0.1,0.1,0.2,0.3,0.3l0.1,0c0.1,0,0.2,0,0.2,0.1
				c0,0.1-0.1,0.1-0.2,0.1s-0.2,0-0.3-0.1l-0.1,0.1c0.1,0.1,0.2,0.1,0.4,0.1c0.3,0,0.4-0.1,0.4-0.3c0-0.2-0.1-0.2-0.3-0.3l-0.1,0
				c-0.1,0-0.1,0-0.1-0.1c0-0.1,0.1-0.1,0.2-0.1c0.1,0,0.2,0,0.3,0.1L342.2,268.7L342.2,268.7z M347.2,268.6c-0.1,0-0.2,0.1-0.2,0.1
				v-0.1h-0.2v0.9h0.2V269c0-0.1,0.1-0.2,0.2-0.2c0,0,0.1,0,0.1,0l0.1-0.2C347.3,268.6,347.2,268.6,347.2,268.6L347.2,268.6z
				 M344.8,269.1c0,0.3,0.2,0.5,0.5,0.5c0.1,0,0.2,0,0.3-0.1l-0.1-0.2c-0.1,0.1-0.1,0.1-0.2,0.1c-0.2,0-0.3-0.1-0.3-0.3
				c0-0.2,0.1-0.3,0.3-0.3c0.1,0,0.2,0,0.2,0.1l0.1-0.2c-0.1-0.1-0.2-0.1-0.3-0.1C345,268.6,344.8,268.8,344.8,269.1L344.8,269.1
				L344.8,269.1z M346.5,269.1v-0.4h-0.2v0.1c-0.1-0.1-0.2-0.1-0.3-0.1c-0.2,0-0.4,0.2-0.4,0.5s0.2,0.5,0.4,0.5c0.1,0,0.2,0,0.3-0.1
				v0.1h0.2V269.1L346.5,269.1z M345.8,269.1c0-0.2,0.1-0.3,0.3-0.3c0.2,0,0.3,0.1,0.3,0.3c0,0.2-0.1,0.3-0.3,0.3
				C345.9,269.3,345.8,269.2,345.8,269.1L345.8,269.1z M343.6,268.6c-0.3,0-0.4,0.2-0.4,0.5s0.2,0.5,0.4,0.5c0.1,0,0.3,0,0.4-0.1
				l-0.1-0.1c-0.1,0.1-0.2,0.1-0.3,0.1c-0.1,0-0.2-0.1-0.3-0.2h0.6c0,0,0,0,0-0.1C344,268.8,343.8,268.6,343.6,268.6L343.6,268.6
				L343.6,268.6z M343.6,268.8c0.1,0,0.2,0.1,0.2,0.2h-0.5C343.4,268.9,343.4,268.8,343.6,268.8L343.6,268.8z M348.3,269.1v-0.8
				h-0.2v0.5c-0.1-0.1-0.2-0.1-0.3-0.1c-0.2,0-0.4,0.2-0.4,0.5c0,0.3,0.2,0.5,0.4,0.5c0.1,0,0.2,0,0.3-0.1v0.1h0.2V269.1
				L348.3,269.1z M347.6,269.1c0-0.2,0.1-0.3,0.3-0.3c0.2,0,0.3,0.1,0.3,0.3c0,0.2-0.1,0.3-0.3,0.3
				C347.7,269.3,347.6,269.2,347.6,269.1L347.6,269.1z M341.2,269.1v-0.4h-0.2v0.1c-0.1-0.1-0.2-0.1-0.3-0.1c-0.2,0-0.4,0.2-0.4,0.5
				s0.2,0.5,0.4,0.5c0.1,0,0.2,0,0.3-0.1v0.1h0.2V269.1L341.2,269.1z M340.5,269.1c0-0.2,0.1-0.3,0.3-0.3c0.2,0,0.3,0.1,0.3,0.3
				c0,0.2-0.1,0.3-0.3,0.3C340.6,269.3,340.5,269.2,340.5,269.1z"/>
		</g>
		<g id="XMLID_328_" transform="translate(-502.86126,-41.013507)">
			<rect id="rect19" x="342.1" y="262" class="st0" width="2.8" height="5.1"/>
			<path id="XMLID_330_" inkscape:connector-curvature="0" class="st1" d="M342.3,264.6c0-1,0.5-2,1.2-2.6c-0.6-0.4-1.2-0.7-2-0.7
				c-1.8,0-3.3,1.5-3.3,3.3c0,1.8,1.5,3.3,3.3,3.3c0.8,0,1.5-0.3,2-0.7C342.8,266.6,342.3,265.6,342.3,264.6z"/>
			<path id="path22" inkscape:connector-curvature="0" class="st2" d="M348.8,264.6c0,1.8-1.5,3.3-3.3,3.3c-0.8,0-1.5-0.3-2-0.7
				c0.8-0.6,1.2-1.5,1.2-2.6s-0.5-2-1.2-2.6c0.6-0.4,1.2-0.7,2-0.7C347.3,261.3,348.8,262.8,348.8,264.6z"/>
		</g>
	</g>
</g>
</svg>
