<?xml version="1.0" encoding="utf-8"?>
<!-- Generator: Adobe Illustrator 24.1.0, SVG Export Plug-In . SVG Version: 6.00 Build 0)  -->
<svg version="1.1" id="Слой_1" xmlns="http://www.w3.org/2000/svg" xmlns:xlink="http://www.w3.org/1999/xlink" x="0px" y="0px"
	 viewBox="0 0 100 77.5" style="enable-background:new 0 0 100 77.5;" xml:space="preserve">
<style type="text/css">
	.st0{fill-rule:evenodd;clip-rule:evenodd;fill:#0F754E;}
	.st1{fill-rule:evenodd;clip-rule:evenodd;fill:url(#path24_1_);}
</style>
<desc>Created with Sketch.</desc>
<g id="sim">
	<g id="mir-logo" transform="translate(31.000000, 13.000000)">
		<g id="Group-5">
			<path id="Combined-Shape" class="st0" d="M-17.1,14.7c0.8,0,3.1-0.2,4.1,3.1c0.7,2.3,1.7,6,3.2,11.1l0,0h0.6
				c1.6-5.4,2.6-9.1,3.2-11.1c1-3.4,3.5-3.1,4.5-3.1l7.7,0v24.1h-7.9V24.6h-0.5l-4.4,14.2h-5.9l-4.4-14.2h-0.5v14.2h-7.9V14.7
				L-17.1,14.7z M17.6,14.7v14.2h0.6l5.3-11.7c1-2.3,3.3-2.5,3.3-2.5l0,0h7.6v24.1h-8.1V24.6h-0.6l-5.2,11.7c-1,2.3-3.4,2.5-3.4,2.5
				H9.6V14.7H17.6z M62.3,26.2c-1.1,3.2-4.6,5.5-8.6,5.5l0,0h-8.4v7.2h-7.7V26.2H62.3z"/>
			
				<linearGradient id="path24_1_" gradientUnits="userSpaceOnUse" x1="-285.3311" y1="413.2734" x2="-285.5819" y2="413.2734" gradientTransform="matrix(102.6707 0 0 -39.6694 29358.1406 16414.0078)">
				<stop  offset="0" style="stop-color:#1F5CD7"/>
				<stop  offset="1" style="stop-color:#02AEFF"/>
			</linearGradient>
			<path id="path24" class="st1" d="M54.1,14.7H37.3c0.4,5.4,5,9.9,9.8,9.9h15.8C63.8,20.2,60.6,14.7,54.1,14.7z"/>
		</g>
	</g>
</g>
</svg>
