<?xml version="1.0" encoding="utf-8"?>
<!-- Generator: Adobe Illustrator 24.1.0, SVG Export Plug-In . SVG Version: 6.00 Build 0)  -->
<svg version="1.1"
	 id="svg10306" xmlns:cc="http://creativecommons.org/ns#" xmlns:dc="http://purl.org/dc/elements/1.1/" xmlns:rdf="http://www.w3.org/1999/02/22-rdf-syntax-ns#" xmlns:svg="http://www.w3.org/2000/svg"
	 xmlns="http://www.w3.org/2000/svg" xmlns:xlink="http://www.w3.org/1999/xlink" x="0px" y="0px" viewBox="0 0 100 77.5"
	 style="enable-background:new 0 0 100 77.5;" xml:space="preserve">
<style type="text/css">
	.st0{clip-path:url(#SVGID_2_);}
	.st1{fill:url(#path10283_1_);}
</style>
<g id="layer1" transform="translate(-333.70157,-536.42431)">
	<g id="g10267" transform="matrix(4.9846856,0,0,-4.9846856,-1470.1185,1039.6264)">
		<g>
			<defs>
				<path id="SVGID_1_" d="M372.2,94.2c0-0.8,0.7-1.2,1.2-1.4c0.5-0.3,0.7-0.4,0.7-0.7c0-0.4-0.4-0.5-0.8-0.5
					c-0.7,0-1.1,0.2-1.4,0.3l-0.2-1.2c0.3-0.1,0.9-0.3,1.5-0.3c1.4,0,2.4,0.7,2.4,1.8c0,1.4-1.9,1.5-1.9,2.1c0,0.2,0.2,0.4,0.6,0.4
					c0.2,0,0.7,0,1.3-0.2l0.2,1.1c-0.3,0.1-0.8,0.2-1.3,0.2C373.1,95.9,372.2,95.2,372.2,94.2 M378.1,95.8c-0.3,0-0.5-0.2-0.6-0.4
					l-2.1-4.9h1.4l0.3,0.8h1.8l0.2-0.8h1.3l-1.1,5.3H378.1 M378.3,94.4l0.4-2h-1.1L378.3,94.4 M370.4,95.8l-1.1-5.3h1.4l1.1,5.3
					H370.4 M368.4,95.8l-1.4-3.6l-0.6,3.1c-0.1,0.3-0.3,0.5-0.6,0.5h-2.3l0-0.2c0.5-0.1,1-0.3,1.3-0.4c0.2-0.1,0.3-0.2,0.3-0.5
					l1.1-4.2h1.4l2.2,5.3H368.4"/>
			</defs>
			<clipPath id="SVGID_2_">
				<use xlink:href="#SVGID_1_"  style="overflow:visible;"/>
			</clipPath>
			<g id="g10269" class="st0">
				<g id="g10275" transform="translate(351.611,96.896)">
					
						<linearGradient id="path10283_1_" gradientUnits="userSpaceOnUse" x1="-40.8398" y1="-83.1418" x2="-40.6705" y2="-83.1418" gradientTransform="matrix(419.708 154.5691 154.5691 -419.708 30005.293 -28588.9785)">
						<stop  offset="0" style="stop-color:#222357"/>
						<stop  offset="1" style="stop-color:#254AA5"/>
					</linearGradient>
					<path id="path10283" class="st1" d="M10-1.6l16.7,6.1l3.8-10.3l-16.7-6.1"/>
				</g>
			</g>
		</g>
	</g>
</g>
</svg>
